<svg width="17" height="20" viewBox="0 0 17 20" fill="none" xmlns="http://www.w3.org/2000/svg">
<path d="M5 20V6.775C3.48333 6.375 2.27083 5.5375 1.3625 4.2625C0.454167 2.9875 0 1.56667 0 0H2C2 1.38333 2.44583 2.5625 3.3375 3.5375C4.22917 4.5125 5.36667 5 6.75 5H9.25C9.75 5 10.2167 5.09167 10.65 5.275C11.0833 5.45833 11.475 5.725 11.825 6.075L16.35 10.6L14.95 12L11 8.05V20H9V14H7V20H5ZM8 4C7.45 4 6.97917 3.80417 6.5875 3.4125C6.19583 3.02083 6 2.55 6 2C6 1.45 6.19583 0.979167 6.5875 0.5875C6.97917 0.195833 7.45 0 8 0C8.55 0 9.02083 0.195833 9.4125 0.5875C9.80417 0.979167 10 1.45 10 2C10 2.55 9.80417 3.02083 9.4125 3.4125C9.02083 3.80417 8.55 4 8 4Z" fill="#1C1B1F"/>
</svg>
